<svg width="148" height="50" viewBox="0 0 148 50" fill="none" xmlns="http://www.w3.org/2000/svg">
<circle cx="4" cy="4" r="4" fill="#3253BA"/>
<circle cx="4" cy="18" r="4" fill="#3253BA"/>
<circle cx="4" cy="32" r="4" fill="#3253BA"/>
<circle cx="4" cy="46" r="4" fill="#3253BA"/>
<circle cx="24" cy="46" r="4" fill="#3253BA"/>
<circle cx="44" cy="46" r="4" fill="#3253BA"/>
<circle cx="64" cy="46" r="4" fill="#3253BA"/>
<circle cx="84" cy="46" r="4" fill="#3253BA"/>
<circle cx="104" cy="46" r="4" fill="#3253BA"/>
<circle cx="124" cy="46" r="4" fill="#3253BA"/>
<circle cx="144" cy="46" r="4" fill="#3253BA"/>
<circle cx="24" cy="32" r="4" fill="#3253BA"/>
<circle cx="44" cy="32" r="4" fill="#3253BA"/>
<circle cx="64" cy="32" r="4" fill="#3253BA"/>
<circle cx="84" cy="32" r="4" fill="#3253BA"/>
<circle cx="104" cy="32" r="4" fill="#3253BA"/>
<circle cx="124" cy="32" r="4" fill="#3253BA"/>
<circle cx="144" cy="32" r="4" fill="#3253BA"/>
<circle cx="24" cy="18" r="4" fill="#3253BA"/>
<circle cx="44" cy="18" r="4" fill="#3253BA"/>
<circle cx="64" cy="18" r="4" fill="#3253BA"/>
<circle cx="84" cy="18" r="4" fill="#3253BA"/>
<circle cx="104" cy="18" r="4" fill="#3253BA"/>
<circle cx="124" cy="18" r="4" fill="#3253BA"/>
<circle cx="144" cy="18" r="4" fill="#3253BA"/>
<circle cx="24" cy="4" r="4" fill="#3253BA"/>
<circle cx="44" cy="4" r="4" fill="#3253BA"/>
<circle cx="64" cy="4" r="4" fill="#3253BA"/>
<circle cx="84" cy="4" r="4" fill="#3253BA"/>
<circle cx="104" cy="4" r="4" fill="#3253BA"/>
<circle cx="124" cy="4" r="4" fill="#3253BA"/>
<circle cx="144" cy="4" r="4" fill="#3253BA"/>
</svg>
