<svg width="19" height="15" viewBox="0 0 19 15" fill="none" xmlns="http://www.w3.org/2000/svg">
<path d="M3.31348 4.32679C3.31348 3.34968 3.70856 2.41258 4.41183 1.72166C5.11509 1.03073 6.06891 0.642578 7.06348 0.642578C8.05804 0.642578 9.01187 1.03073 9.71513 1.72166C10.4184 2.41258 10.8135 3.34968 10.8135 4.32679C10.8135 5.3039 10.4184 6.241 9.71513 6.93192C9.01187 7.62284 8.05804 8.011 7.06348 8.011C6.06891 8.011 5.11509 7.62284 4.41183 6.93192C3.70856 6.241 3.31348 5.3039 3.31348 4.32679ZM4.43848 9.48468C3.44391 9.48468 2.49009 9.87284 1.78683 10.5638C1.08356 11.2547 0.688477 12.1918 0.688477 13.1689L0.688477 14.6426H13.4385V13.1689C13.4385 12.1918 13.0434 11.2547 12.3401 10.5638C11.6369 9.87284 10.683 9.48468 9.68848 9.48468H4.43848ZM18.6885 14.6426H14.9385V13.1689C14.9385 11.7254 14.3355 10.4205 13.3635 9.48468H14.9385C15.4309 9.48468 15.9186 9.57998 16.3735 9.76513C16.8285 9.95028 17.2419 10.2217 17.5901 10.5638C17.9383 10.9059 18.2146 11.312 18.403 11.759C18.5915 12.206 18.6885 12.6851 18.6885 13.1689V14.6426ZM12.3135 8.011C11.8557 8.0112 11.4017 7.92904 10.974 7.76858C11.8384 6.82359 12.3157 5.59734 12.3135 4.32679C12.3155 3.05614 11.838 1.82987 10.9732 0.884999C11.487 0.692239 12.0377 0.612867 12.5862 0.652507C13.1346 0.692147 13.6675 0.84983 14.1471 1.11438C14.6266 1.37893 15.0411 1.74387 15.361 2.18333C15.681 2.6228 15.8987 3.12603 15.9986 3.65736C16.0985 4.18868 16.0783 4.73511 15.9393 5.25789C15.8003 5.78067 15.546 6.26702 15.1943 6.68246C14.8427 7.0979 14.4023 7.43227 13.9045 7.66186C13.4066 7.89145 12.8634 8.01065 12.3135 8.011Z" fill="#1574D0"/>
</svg>
